<mxfile host="app.diagrams.net" agent="Mozilla/5.0 (Windows NT 10.0; Win64; x64) AppleWebKit/537.36 (KHTML, like Gecko) Chrome/134.0.0.0 Safari/537.36" version="26.1.3">
  <diagram name="Page-1" id="0L0zDacnTFi3Tz60bOz4">
    <mxGraphModel dx="1050" dy="557" grid="1" gridSize="10" guides="1" tooltips="1" connect="1" arrows="1" fold="1" page="1" pageScale="1" pageWidth="850" pageHeight="1100" math="0" shadow="0">
      <root>
        <mxCell id="0" />
        <mxCell id="1" parent="0" />
        <mxCell id="4UHsaT9dGgy9SnWZVQaP-34" value="User" style="swimlane;fontStyle=0;childLayout=stackLayout;horizontal=1;startSize=30;horizontalStack=0;resizeParent=1;resizeParentMax=0;resizeLast=0;collapsible=1;marginBottom=0;whiteSpace=wrap;html=1;" vertex="1" parent="1">
          <mxGeometry x="40" y="110" width="190" height="200" as="geometry" />
        </mxCell>
        <mxCell id="4UHsaT9dGgy9SnWZVQaP-35" value="- User ID : Int" style="text;strokeColor=none;fillColor=none;align=left;verticalAlign=middle;spacingLeft=4;spacingRight=4;overflow=hidden;points=[[0,0.5],[1,0.5]];portConstraint=eastwest;rotatable=0;whiteSpace=wrap;html=1;" vertex="1" parent="4UHsaT9dGgy9SnWZVQaP-34">
          <mxGeometry y="30" width="190" height="30" as="geometry" />
        </mxCell>
        <mxCell id="4UHsaT9dGgy9SnWZVQaP-36" value="-User Name : String" style="text;strokeColor=none;fillColor=none;align=left;verticalAlign=middle;spacingLeft=4;spacingRight=4;overflow=hidden;points=[[0,0.5],[1,0.5]];portConstraint=eastwest;rotatable=0;whiteSpace=wrap;html=1;" vertex="1" parent="4UHsaT9dGgy9SnWZVQaP-34">
          <mxGeometry y="60" width="190" height="30" as="geometry" />
        </mxCell>
        <mxCell id="4UHsaT9dGgy9SnWZVQaP-49" value="" style="endArrow=none;html=1;rounded=0;entryX=1.009;entryY=-0.09;entryDx=0;entryDy=0;entryPerimeter=0;" edge="1" parent="4UHsaT9dGgy9SnWZVQaP-34" target="4UHsaT9dGgy9SnWZVQaP-42">
          <mxGeometry width="50" height="50" relative="1" as="geometry">
            <mxPoint y="120" as="sourcePoint" />
            <mxPoint x="330" y="120" as="targetPoint" />
          </mxGeometry>
        </mxCell>
        <mxCell id="4UHsaT9dGgy9SnWZVQaP-37" value="-Pereferences : list &amp;lt;Song&amp;gt;" style="text;strokeColor=none;fillColor=none;align=left;verticalAlign=middle;spacingLeft=4;spacingRight=4;overflow=hidden;points=[[0,0.5],[1,0.5]];portConstraint=eastwest;rotatable=0;whiteSpace=wrap;html=1;" vertex="1" parent="4UHsaT9dGgy9SnWZVQaP-34">
          <mxGeometry y="90" width="190" height="30" as="geometry" />
        </mxCell>
        <mxCell id="4UHsaT9dGgy9SnWZVQaP-42" value="+ Select song (SongID)" style="text;strokeColor=none;fillColor=none;align=left;verticalAlign=middle;spacingLeft=4;spacingRight=4;overflow=hidden;points=[[0,0.5],[1,0.5]];portConstraint=eastwest;rotatable=0;whiteSpace=wrap;html=1;" vertex="1" parent="4UHsaT9dGgy9SnWZVQaP-34">
          <mxGeometry y="120" width="190" height="20" as="geometry" />
        </mxCell>
        <mxCell id="4UHsaT9dGgy9SnWZVQaP-43" value="+ LikeSong (Song ID)" style="text;strokeColor=none;fillColor=none;align=left;verticalAlign=middle;spacingLeft=4;spacingRight=4;overflow=hidden;points=[[0,0.5],[1,0.5]];portConstraint=eastwest;rotatable=0;whiteSpace=wrap;html=1;" vertex="1" parent="4UHsaT9dGgy9SnWZVQaP-34">
          <mxGeometry y="140" width="190" height="30" as="geometry" />
        </mxCell>
        <mxCell id="4UHsaT9dGgy9SnWZVQaP-44" value="+Dislike Song (Song ID)" style="text;strokeColor=none;fillColor=none;align=left;verticalAlign=middle;spacingLeft=4;spacingRight=4;overflow=hidden;points=[[0,0.5],[1,0.5]];portConstraint=eastwest;rotatable=0;whiteSpace=wrap;html=1;" vertex="1" parent="4UHsaT9dGgy9SnWZVQaP-34">
          <mxGeometry y="170" width="190" height="30" as="geometry" />
        </mxCell>
        <mxCell id="4UHsaT9dGgy9SnWZVQaP-59" style="edgeStyle=orthogonalEdgeStyle;rounded=0;orthogonalLoop=1;jettySize=auto;html=1;exitX=1;exitY=0.5;exitDx=0;exitDy=0;" edge="1" parent="4UHsaT9dGgy9SnWZVQaP-34" source="4UHsaT9dGgy9SnWZVQaP-35" target="4UHsaT9dGgy9SnWZVQaP-35">
          <mxGeometry relative="1" as="geometry" />
        </mxCell>
        <mxCell id="4UHsaT9dGgy9SnWZVQaP-93" value="Song" style="swimlane;fontStyle=0;childLayout=stackLayout;horizontal=1;startSize=30;horizontalStack=0;resizeParent=1;resizeParentMax=0;resizeLast=0;collapsible=1;marginBottom=0;whiteSpace=wrap;html=1;" vertex="1" parent="1">
          <mxGeometry x="320" y="110" width="180" height="240" as="geometry" />
        </mxCell>
        <mxCell id="4UHsaT9dGgy9SnWZVQaP-94" value="- Song ID : Int" style="text;strokeColor=none;fillColor=none;align=left;verticalAlign=middle;spacingLeft=4;spacingRight=4;overflow=hidden;points=[[0,0.5],[1,0.5]];portConstraint=eastwest;rotatable=0;whiteSpace=wrap;html=1;" vertex="1" parent="4UHsaT9dGgy9SnWZVQaP-93">
          <mxGeometry y="30" width="180" height="30" as="geometry" />
        </mxCell>
        <mxCell id="4UHsaT9dGgy9SnWZVQaP-97" value="- Title : String" style="text;strokeColor=none;fillColor=none;align=left;verticalAlign=middle;spacingLeft=4;spacingRight=4;overflow=hidden;points=[[0,0.5],[1,0.5]];portConstraint=eastwest;rotatable=0;whiteSpace=wrap;html=1;" vertex="1" parent="4UHsaT9dGgy9SnWZVQaP-93">
          <mxGeometry y="60" width="180" height="30" as="geometry" />
        </mxCell>
        <mxCell id="4UHsaT9dGgy9SnWZVQaP-98" value="- Artist : String" style="text;strokeColor=none;fillColor=none;align=left;verticalAlign=middle;spacingLeft=4;spacingRight=4;overflow=hidden;points=[[0,0.5],[1,0.5]];portConstraint=eastwest;rotatable=0;whiteSpace=wrap;html=1;" vertex="1" parent="4UHsaT9dGgy9SnWZVQaP-93">
          <mxGeometry y="90" width="180" height="30" as="geometry" />
        </mxCell>
        <mxCell id="4UHsaT9dGgy9SnWZVQaP-95" value="- Genre : String" style="text;strokeColor=none;fillColor=none;align=left;verticalAlign=middle;spacingLeft=4;spacingRight=4;overflow=hidden;points=[[0,0.5],[1,0.5]];portConstraint=eastwest;rotatable=0;whiteSpace=wrap;html=1;" vertex="1" parent="4UHsaT9dGgy9SnWZVQaP-93">
          <mxGeometry y="120" width="180" height="30" as="geometry" />
        </mxCell>
        <mxCell id="4UHsaT9dGgy9SnWZVQaP-96" value="- Album : String" style="text;strokeColor=none;fillColor=none;align=left;verticalAlign=middle;spacingLeft=4;spacingRight=4;overflow=hidden;points=[[0,0.5],[1,0.5]];portConstraint=eastwest;rotatable=0;whiteSpace=wrap;html=1;" vertex="1" parent="4UHsaT9dGgy9SnWZVQaP-93">
          <mxGeometry y="150" width="180" height="30" as="geometry" />
        </mxCell>
        <mxCell id="4UHsaT9dGgy9SnWZVQaP-99" value="- Audio Feature : List" style="text;strokeColor=none;fillColor=none;align=left;verticalAlign=middle;spacingLeft=4;spacingRight=4;overflow=hidden;points=[[0,0.5],[1,0.5]];portConstraint=eastwest;rotatable=0;whiteSpace=wrap;html=1;" vertex="1" parent="4UHsaT9dGgy9SnWZVQaP-93">
          <mxGeometry y="180" width="180" height="30" as="geometry" />
        </mxCell>
        <mxCell id="4UHsaT9dGgy9SnWZVQaP-100" value="- Release Date: Date" style="text;strokeColor=none;fillColor=none;align=left;verticalAlign=middle;spacingLeft=4;spacingRight=4;overflow=hidden;points=[[0,0.5],[1,0.5]];portConstraint=eastwest;rotatable=0;whiteSpace=wrap;html=1;" vertex="1" parent="4UHsaT9dGgy9SnWZVQaP-93">
          <mxGeometry y="210" width="180" height="30" as="geometry" />
        </mxCell>
        <mxCell id="4UHsaT9dGgy9SnWZVQaP-101" value="Recommendation Engine" style="swimlane;fontStyle=0;childLayout=stackLayout;horizontal=1;startSize=30;horizontalStack=0;resizeParent=1;resizeParentMax=0;resizeLast=0;collapsible=1;marginBottom=0;whiteSpace=wrap;html=1;" vertex="1" parent="1">
          <mxGeometry x="550" y="110" width="190" height="180" as="geometry" />
        </mxCell>
        <mxCell id="4UHsaT9dGgy9SnWZVQaP-102" value="- User: User" style="text;strokeColor=none;fillColor=none;align=left;verticalAlign=middle;spacingLeft=4;spacingRight=4;overflow=hidden;points=[[0,0.5],[1,0.5]];portConstraint=eastwest;rotatable=0;whiteSpace=wrap;html=1;" vertex="1" parent="4UHsaT9dGgy9SnWZVQaP-101">
          <mxGeometry y="30" width="190" height="30" as="geometry" />
        </mxCell>
        <mxCell id="4UHsaT9dGgy9SnWZVQaP-103" value="- Song List : List" style="text;strokeColor=none;fillColor=none;align=left;verticalAlign=middle;spacingLeft=4;spacingRight=4;overflow=hidden;points=[[0,0.5],[1,0.5]];portConstraint=eastwest;rotatable=0;whiteSpace=wrap;html=1;" vertex="1" parent="4UHsaT9dGgy9SnWZVQaP-101">
          <mxGeometry y="60" width="190" height="30" as="geometry" />
        </mxCell>
        <mxCell id="4UHsaT9dGgy9SnWZVQaP-104" value="" style="endArrow=none;html=1;rounded=0;entryX=1.009;entryY=-0.09;entryDx=0;entryDy=0;entryPerimeter=0;" edge="1" parent="4UHsaT9dGgy9SnWZVQaP-101">
          <mxGeometry width="50" height="50" relative="1" as="geometry">
            <mxPoint y="120" as="sourcePoint" />
            <mxPoint x="191.71000000000004" y="118.20000000000005" as="targetPoint" />
          </mxGeometry>
        </mxCell>
        <mxCell id="4UHsaT9dGgy9SnWZVQaP-105" value="- Recommended Song : List" style="text;strokeColor=none;fillColor=none;align=left;verticalAlign=middle;spacingLeft=4;spacingRight=4;overflow=hidden;points=[[0,0.5],[1,0.5]];portConstraint=eastwest;rotatable=0;whiteSpace=wrap;html=1;" vertex="1" parent="4UHsaT9dGgy9SnWZVQaP-101">
          <mxGeometry y="90" width="190" height="30" as="geometry" />
        </mxCell>
        <mxCell id="4UHsaT9dGgy9SnWZVQaP-107" value="+ get Commendation ()" style="text;strokeColor=none;fillColor=none;align=left;verticalAlign=middle;spacingLeft=4;spacingRight=4;overflow=hidden;points=[[0,0.5],[1,0.5]];portConstraint=eastwest;rotatable=0;whiteSpace=wrap;html=1;" vertex="1" parent="4UHsaT9dGgy9SnWZVQaP-101">
          <mxGeometry y="120" width="190" height="30" as="geometry" />
        </mxCell>
        <mxCell id="4UHsaT9dGgy9SnWZVQaP-108" value="+ Calculate Similarity ()" style="text;strokeColor=none;fillColor=none;align=left;verticalAlign=middle;spacingLeft=4;spacingRight=4;overflow=hidden;points=[[0,0.5],[1,0.5]];portConstraint=eastwest;rotatable=0;whiteSpace=wrap;html=1;" vertex="1" parent="4UHsaT9dGgy9SnWZVQaP-101">
          <mxGeometry y="150" width="190" height="30" as="geometry" />
        </mxCell>
        <mxCell id="4UHsaT9dGgy9SnWZVQaP-109" style="edgeStyle=orthogonalEdgeStyle;rounded=0;orthogonalLoop=1;jettySize=auto;html=1;exitX=1;exitY=0.5;exitDx=0;exitDy=0;" edge="1" parent="4UHsaT9dGgy9SnWZVQaP-101" source="4UHsaT9dGgy9SnWZVQaP-102" target="4UHsaT9dGgy9SnWZVQaP-102">
          <mxGeometry relative="1" as="geometry" />
        </mxCell>
        <mxCell id="4UHsaT9dGgy9SnWZVQaP-110" value="Feature Extraction" style="swimlane;fontStyle=0;childLayout=stackLayout;horizontal=1;startSize=30;horizontalStack=0;resizeParent=1;resizeParentMax=0;resizeLast=0;collapsible=1;marginBottom=0;whiteSpace=wrap;html=1;" vertex="1" parent="1">
          <mxGeometry x="60" y="450" width="190" height="120" as="geometry" />
        </mxCell>
        <mxCell id="4UHsaT9dGgy9SnWZVQaP-111" value="- Song : Song" style="text;strokeColor=none;fillColor=none;align=left;verticalAlign=middle;spacingLeft=4;spacingRight=4;overflow=hidden;points=[[0,0.5],[1,0.5]];portConstraint=eastwest;rotatable=0;whiteSpace=wrap;html=1;" vertex="1" parent="4UHsaT9dGgy9SnWZVQaP-110">
          <mxGeometry y="30" width="190" height="30" as="geometry" />
        </mxCell>
        <mxCell id="4UHsaT9dGgy9SnWZVQaP-112" value="+ Extract Audio Features ()" style="text;strokeColor=none;fillColor=none;align=left;verticalAlign=middle;spacingLeft=4;spacingRight=4;overflow=hidden;points=[[0,0.5],[1,0.5]];portConstraint=eastwest;rotatable=0;whiteSpace=wrap;html=1;" vertex="1" parent="4UHsaT9dGgy9SnWZVQaP-110">
          <mxGeometry y="60" width="190" height="30" as="geometry" />
        </mxCell>
        <mxCell id="4UHsaT9dGgy9SnWZVQaP-113" value="+ Extract MetaData ()" style="text;strokeColor=none;fillColor=none;align=left;verticalAlign=middle;spacingLeft=4;spacingRight=4;overflow=hidden;points=[[0,0.5],[1,0.5]];portConstraint=eastwest;rotatable=0;whiteSpace=wrap;html=1;" vertex="1" parent="4UHsaT9dGgy9SnWZVQaP-110">
          <mxGeometry y="90" width="190" height="30" as="geometry" />
        </mxCell>
        <mxCell id="4UHsaT9dGgy9SnWZVQaP-118" value="Song Similar" style="swimlane;fontStyle=0;childLayout=stackLayout;horizontal=1;startSize=30;horizontalStack=0;resizeParent=1;resizeParentMax=0;resizeLast=0;collapsible=1;marginBottom=0;whiteSpace=wrap;html=1;" vertex="1" parent="1">
          <mxGeometry x="620" y="450" width="190" height="170" as="geometry" />
        </mxCell>
        <mxCell id="4UHsaT9dGgy9SnWZVQaP-119" value="- Song 1: Song" style="text;strokeColor=none;fillColor=none;align=left;verticalAlign=middle;spacingLeft=4;spacingRight=4;overflow=hidden;points=[[0,0.5],[1,0.5]];portConstraint=eastwest;rotatable=0;whiteSpace=wrap;html=1;" vertex="1" parent="4UHsaT9dGgy9SnWZVQaP-118">
          <mxGeometry y="30" width="190" height="30" as="geometry" />
        </mxCell>
        <mxCell id="4UHsaT9dGgy9SnWZVQaP-120" value="- Song 2 : Song" style="text;strokeColor=none;fillColor=none;align=left;verticalAlign=middle;spacingLeft=4;spacingRight=4;overflow=hidden;points=[[0,0.5],[1,0.5]];portConstraint=eastwest;rotatable=0;whiteSpace=wrap;html=1;" vertex="1" parent="4UHsaT9dGgy9SnWZVQaP-118">
          <mxGeometry y="60" width="190" height="30" as="geometry" />
        </mxCell>
        <mxCell id="4UHsaT9dGgy9SnWZVQaP-121" value="" style="endArrow=none;html=1;rounded=0;entryX=1.009;entryY=-0.09;entryDx=0;entryDy=0;entryPerimeter=0;" edge="1" parent="4UHsaT9dGgy9SnWZVQaP-118">
          <mxGeometry width="50" height="50" relative="1" as="geometry">
            <mxPoint y="120" as="sourcePoint" />
            <mxPoint x="191.71000000000004" y="118.20000000000005" as="targetPoint" />
          </mxGeometry>
        </mxCell>
        <mxCell id="4UHsaT9dGgy9SnWZVQaP-122" value="- SimilarityScore: Float" style="text;strokeColor=none;fillColor=none;align=left;verticalAlign=middle;spacingLeft=4;spacingRight=4;overflow=hidden;points=[[0,0.5],[1,0.5]];portConstraint=eastwest;rotatable=0;whiteSpace=wrap;html=1;" vertex="1" parent="4UHsaT9dGgy9SnWZVQaP-118">
          <mxGeometry y="90" width="190" height="30" as="geometry" />
        </mxCell>
        <mxCell id="4UHsaT9dGgy9SnWZVQaP-123" value="+ Compare song ()" style="text;strokeColor=none;fillColor=none;align=left;verticalAlign=middle;spacingLeft=4;spacingRight=4;overflow=hidden;points=[[0,0.5],[1,0.5]];portConstraint=eastwest;rotatable=0;whiteSpace=wrap;html=1;" vertex="1" parent="4UHsaT9dGgy9SnWZVQaP-118">
          <mxGeometry y="120" width="190" height="20" as="geometry" />
        </mxCell>
        <mxCell id="4UHsaT9dGgy9SnWZVQaP-124" value="+ Calculate Similarity ()" style="text;strokeColor=none;fillColor=none;align=left;verticalAlign=middle;spacingLeft=4;spacingRight=4;overflow=hidden;points=[[0,0.5],[1,0.5]];portConstraint=eastwest;rotatable=0;whiteSpace=wrap;html=1;" vertex="1" parent="4UHsaT9dGgy9SnWZVQaP-118">
          <mxGeometry y="140" width="190" height="30" as="geometry" />
        </mxCell>
        <mxCell id="4UHsaT9dGgy9SnWZVQaP-125" style="edgeStyle=orthogonalEdgeStyle;rounded=0;orthogonalLoop=1;jettySize=auto;html=1;exitX=1;exitY=0.5;exitDx=0;exitDy=0;" edge="1" parent="4UHsaT9dGgy9SnWZVQaP-118" source="4UHsaT9dGgy9SnWZVQaP-119" target="4UHsaT9dGgy9SnWZVQaP-119">
          <mxGeometry relative="1" as="geometry" />
        </mxCell>
        <mxCell id="4UHsaT9dGgy9SnWZVQaP-128" value="Database" style="swimlane;fontStyle=0;childLayout=stackLayout;horizontal=1;startSize=30;horizontalStack=0;resizeParent=1;resizeParentMax=0;resizeLast=0;collapsible=1;marginBottom=0;whiteSpace=wrap;html=1;" vertex="1" parent="1">
          <mxGeometry x="360" y="450" width="190" height="230" as="geometry" />
        </mxCell>
        <mxCell id="4UHsaT9dGgy9SnWZVQaP-129" value="+ Songs : List &amp;lt;Song&amp;gt;" style="text;strokeColor=none;fillColor=none;align=left;verticalAlign=middle;spacingLeft=4;spacingRight=4;overflow=hidden;points=[[0,0.5],[1,0.5]];portConstraint=eastwest;rotatable=0;whiteSpace=wrap;html=1;" vertex="1" parent="4UHsaT9dGgy9SnWZVQaP-128">
          <mxGeometry y="30" width="190" height="30" as="geometry" />
        </mxCell>
        <mxCell id="4UHsaT9dGgy9SnWZVQaP-130" value="- Users : List &amp;lt;User&amp;gt;" style="text;strokeColor=none;fillColor=none;align=left;verticalAlign=middle;spacingLeft=4;spacingRight=4;overflow=hidden;points=[[0,0.5],[1,0.5]];portConstraint=eastwest;rotatable=0;whiteSpace=wrap;html=1;" vertex="1" parent="4UHsaT9dGgy9SnWZVQaP-128">
          <mxGeometry y="60" width="190" height="30" as="geometry" />
        </mxCell>
        <mxCell id="4UHsaT9dGgy9SnWZVQaP-131" value="" style="endArrow=none;html=1;rounded=0;entryX=1.009;entryY=-0.09;entryDx=0;entryDy=0;entryPerimeter=0;" edge="1" parent="4UHsaT9dGgy9SnWZVQaP-128">
          <mxGeometry width="50" height="50" relative="1" as="geometry">
            <mxPoint y="120" as="sourcePoint" />
            <mxPoint x="191.71000000000004" y="118.20000000000005" as="targetPoint" />
          </mxGeometry>
        </mxCell>
        <mxCell id="4UHsaT9dGgy9SnWZVQaP-132" value="- Recommended Song : List" style="text;strokeColor=none;fillColor=none;align=left;verticalAlign=middle;spacingLeft=4;spacingRight=4;overflow=hidden;points=[[0,0.5],[1,0.5]];portConstraint=eastwest;rotatable=0;whiteSpace=wrap;html=1;" vertex="1" parent="4UHsaT9dGgy9SnWZVQaP-128">
          <mxGeometry y="90" width="190" height="30" as="geometry" />
        </mxCell>
        <mxCell id="4UHsaT9dGgy9SnWZVQaP-133" value="+ Get User Data (User ID)" style="text;strokeColor=none;fillColor=none;align=left;verticalAlign=middle;spacingLeft=4;spacingRight=4;overflow=hidden;points=[[0,0.5],[1,0.5]];portConstraint=eastwest;rotatable=0;whiteSpace=wrap;html=1;" vertex="1" parent="4UHsaT9dGgy9SnWZVQaP-128">
          <mxGeometry y="120" width="190" height="20" as="geometry" />
        </mxCell>
        <mxCell id="4UHsaT9dGgy9SnWZVQaP-134" value="+ Get song Data (Song ID)" style="text;strokeColor=none;fillColor=none;align=left;verticalAlign=middle;spacingLeft=4;spacingRight=4;overflow=hidden;points=[[0,0.5],[1,0.5]];portConstraint=eastwest;rotatable=0;whiteSpace=wrap;html=1;" vertex="1" parent="4UHsaT9dGgy9SnWZVQaP-128">
          <mxGeometry y="140" width="190" height="30" as="geometry" />
        </mxCell>
        <mxCell id="4UHsaT9dGgy9SnWZVQaP-135" value="+ Add Song (Song)" style="text;strokeColor=none;fillColor=none;align=left;verticalAlign=middle;spacingLeft=4;spacingRight=4;overflow=hidden;points=[[0,0.5],[1,0.5]];portConstraint=eastwest;rotatable=0;whiteSpace=wrap;html=1;" vertex="1" parent="4UHsaT9dGgy9SnWZVQaP-128">
          <mxGeometry y="170" width="190" height="30" as="geometry" />
        </mxCell>
        <mxCell id="4UHsaT9dGgy9SnWZVQaP-136" value="+ Add User (User)" style="text;strokeColor=none;fillColor=none;align=left;verticalAlign=middle;spacingLeft=4;spacingRight=4;overflow=hidden;points=[[0,0.5],[1,0.5]];portConstraint=eastwest;rotatable=0;whiteSpace=wrap;html=1;" vertex="1" parent="4UHsaT9dGgy9SnWZVQaP-128">
          <mxGeometry y="200" width="190" height="30" as="geometry" />
        </mxCell>
        <mxCell id="4UHsaT9dGgy9SnWZVQaP-137" style="edgeStyle=orthogonalEdgeStyle;rounded=0;orthogonalLoop=1;jettySize=auto;html=1;exitX=1;exitY=0.5;exitDx=0;exitDy=0;" edge="1" parent="4UHsaT9dGgy9SnWZVQaP-128" source="4UHsaT9dGgy9SnWZVQaP-129" target="4UHsaT9dGgy9SnWZVQaP-129">
          <mxGeometry relative="1" as="geometry" />
        </mxCell>
        <mxCell id="4UHsaT9dGgy9SnWZVQaP-139" value="" style="endArrow=classic;html=1;rounded=0;entryX=0.25;entryY=0;entryDx=0;entryDy=0;" edge="1" parent="1">
          <mxGeometry width="50" height="50" relative="1" as="geometry">
            <mxPoint x="660" y="291" as="sourcePoint" />
            <mxPoint x="660" y="449.4" as="targetPoint" />
          </mxGeometry>
        </mxCell>
        <mxCell id="4UHsaT9dGgy9SnWZVQaP-140" value="" style="endArrow=classic;html=1;rounded=0;" edge="1" parent="1">
          <mxGeometry width="50" height="50" relative="1" as="geometry">
            <mxPoint x="420" y="350" as="sourcePoint" />
            <mxPoint x="420" y="450" as="targetPoint" />
          </mxGeometry>
        </mxCell>
        <mxCell id="4UHsaT9dGgy9SnWZVQaP-141" value="" style="endArrow=classic;html=1;rounded=0;" edge="1" parent="1">
          <mxGeometry width="50" height="50" relative="1" as="geometry">
            <mxPoint x="130" y="310" as="sourcePoint" />
            <mxPoint x="130" y="449" as="targetPoint" />
          </mxGeometry>
        </mxCell>
        <mxCell id="4UHsaT9dGgy9SnWZVQaP-148" value="" style="endArrow=none;html=1;rounded=0;exitX=0.864;exitY=1.047;exitDx=0;exitDy=0;exitPerimeter=0;" edge="1" parent="1" source="4UHsaT9dGgy9SnWZVQaP-100">
          <mxGeometry width="50" height="50" relative="1" as="geometry">
            <mxPoint x="500" y="310" as="sourcePoint" />
            <mxPoint x="640" y="380" as="targetPoint" />
            <Array as="points">
              <mxPoint x="476" y="380" />
              <mxPoint x="560" y="380" />
            </Array>
          </mxGeometry>
        </mxCell>
        <mxCell id="4UHsaT9dGgy9SnWZVQaP-149" value="" style="endArrow=classic;html=1;rounded=0;entryX=0.116;entryY=0.013;entryDx=0;entryDy=0;entryPerimeter=0;" edge="1" parent="1" target="4UHsaT9dGgy9SnWZVQaP-118">
          <mxGeometry width="50" height="50" relative="1" as="geometry">
            <mxPoint x="640" y="380" as="sourcePoint" />
            <mxPoint x="644.5" y="450.00000000000006" as="targetPoint" />
            <Array as="points">
              <mxPoint x="640" y="420" />
            </Array>
          </mxGeometry>
        </mxCell>
      </root>
    </mxGraphModel>
  </diagram>
</mxfile>
